<?xml version="1.0" encoding="UTF-8"?>
<svg xmlns="http://www.w3.org/2000/svg" class="g-svg" viewBox="0 0 800 395" width="800" height="395" role="img" aria-label="Request flow of an LLM-powered application with trust boundaries"><title>Request flow of an LLM-powered application with trust boundaries</title><style>
.g-svg{font-family:-apple-system,BlinkMacSystemFont,"Segoe UI",Helvetica,Arial,sans-serif}
.g-text{fill:#1f2933;font-size:13px}
.g-b{font-weight:700}
.g-s{font-size:11px}
.g-xs{font-size:10px}
.g-m{fill:#5b6b7b}
.g-tbad{fill:#b02a2a}
.g-tgood{fill:#1b7a44}
.g-twarn{fill:#8a6400}
.g-tprim{fill:#2b3990}
.g-ton{fill:#ffffff}
.g-r{stroke-width:1.3}
.g-r-box{fill:#f3f5f9;stroke:#9aa7b8}
.g-r-primary{fill:#e4e9ff;stroke:#4051b5}
.g-r-good{fill:#e3f6ea;stroke:#2e9e5b}
.g-r-warn{fill:#fff3d6;stroke:#d9a000}
.g-r-bad{fill:#fde7e7;stroke:#d64545}
.g-r-zone{fill:none;stroke:#5b6b7b;stroke-dasharray:6 4}
.g-r-zonebad{fill:none;stroke:#d64545;stroke-dasharray:6 4}
.g-r-lv1{fill:#eef0fb;stroke:none}
.g-r-lv2{fill:#cdd3f4;stroke:none}
.g-r-lv3{fill:#9aa6e8;stroke:none}
.g-r-lv4{fill:#5c6dd0;stroke:none}
.g-r-lv5{fill:#2f3fa6;stroke:none}
.g-p{stroke:#5b6b7b;stroke-width:1.6;fill:none}
.g-pbad{stroke:#d64545;stroke-width:1.6;fill:none}
.g-pgood{stroke:#2e9e5b;stroke-width:1.6;fill:none}
.g-pwarn{stroke:#d9a000;stroke-width:1.6;fill:none}
.g-dash{stroke-dasharray:5 4}
.g-ah{fill:#5b6b7b}
.g-ah-bad{fill:#d64545}
.g-ah-good{fill:#2e9e5b}
.g-today{stroke:#d64545;stroke-width:1.4;stroke-dasharray:3 3}
</style><defs><marker id="request-flow-a" viewBox="0 0 10 10" refX="9" refY="5" markerWidth="7" markerHeight="7" orient="auto"><path class="g-ah" d="M0,0 L10,5 L0,10 z"/></marker><marker id="request-flow-ab" viewBox="0 0 10 10" refX="9" refY="5" markerWidth="7" markerHeight="7" orient="auto"><path class="g-ah-bad" d="M0,0 L10,5 L0,10 z"/></marker><marker id="request-flow-ag" viewBox="0 0 10 10" refX="9" refY="5" markerWidth="7" markerHeight="7" orient="auto"><path class="g-ah-good" d="M0,0 L10,5 L0,10 z"/></marker></defs><rect class="g-r g-r-zonebad" x="8.0" y="30.0" width="134.0" height="112.0" rx="10"/><text class="g-text g-s g-tbad" x="18.0" y="45.0" text-anchor="start">Internet (untrusted)</text><rect class="g-r g-r-zone" x="156.0" y="30.0" width="478.0" height="112.0" rx="10"/><text class="g-text g-s g-m" x="166.0" y="45.0" text-anchor="start">Edge: first line of defence</text><rect class="g-r g-r-zone" x="318.0" y="168.0" width="316.0" height="215.0" rx="10"/><text class="g-text g-s g-m" x="328.0" y="183.0" text-anchor="start">Internal network</text><rect class="g-r g-r-zone" x="646.0" y="168.0" width="148.0" height="112.0" rx="10"/><text class="g-text g-s g-m" x="656.0" y="183.0" text-anchor="start">Third party</text><rect class="g-r g-r-box" x="20.0" y="62.0" width="110.0" height="60.0" rx="8"/><text class="g-text g-b" x="75.0" y="88.5" text-anchor="middle" style="font-size:12px">Browser</text><text class="g-text" x="75.0" y="104.5" text-anchor="middle" style="font-size:12px">user or attacker</text><rect class="g-r g-r-primary" x="172.0" y="62.0" width="118.0" height="60.0" rx="8"/><text class="g-text g-b" x="231.0" y="88.5" text-anchor="middle" style="font-size:12px">CDN / WAF</text><text class="g-text" x="231.0" y="104.5" text-anchor="middle" style="font-size:12px">filters bad traffic</text><rect class="g-r g-r-primary" x="330.0" y="62.0" width="118.0" height="60.0" rx="8"/><text class="g-text g-b" x="389.0" y="88.5" text-anchor="middle" style="font-size:12px">Load balancer</text><text class="g-text" x="389.0" y="104.5" text-anchor="middle" style="font-size:12px">TLS termination</text><rect class="g-r g-r-primary" x="488.0" y="62.0" width="134.0" height="60.0" rx="8"/><text class="g-text g-b" x="555.0" y="88.5" text-anchor="middle" style="font-size:12px">API gateway</text><text class="g-text" x="555.0" y="104.5" text-anchor="middle" style="font-size:12px">auth · rate limits</text><rect class="g-r g-r-good" x="488.0" y="200.0" width="134.0" height="60.0" rx="8"/><text class="g-text g-b" x="555.0" y="226.5" text-anchor="middle" style="font-size:12px">App service</text><text class="g-text" x="555.0" y="242.5" text-anchor="middle" style="font-size:12px">prompts · tools</text><rect class="g-r g-r-box" x="330.0" y="200.0" width="118.0" height="60.0" rx="8"/><text class="g-text g-b" x="389.0" y="226.5" text-anchor="middle" style="font-size:12px">Vector store</text><text class="g-text" x="389.0" y="242.5" text-anchor="middle" style="font-size:12px">retrieval</text><rect class="g-r g-r-box" x="488.0" y="308.0" width="134.0" height="56.0" rx="8"/><text class="g-text g-b" x="555.0" y="332.5" text-anchor="middle" style="font-size:12px">Logging / SIEM</text><text class="g-text" x="555.0" y="348.5" text-anchor="middle" style="font-size:12px">detections</text><rect class="g-r g-r-bad" x="658.0" y="200.0" width="124.0" height="60.0" rx="8"/><text class="g-text g-b" x="720.0" y="226.5" text-anchor="middle" style="font-size:12px">Model API</text><text class="g-text" x="720.0" y="242.5" text-anchor="middle" style="font-size:12px">hosted LLM</text><path class="g-p" d="M132.0 92.0 L170.0 92.0" marker-end="url(#request-flow-a)"/><path class="g-p" d="M292.0 92.0 L328.0 92.0" marker-end="url(#request-flow-a)"/><path class="g-p" d="M450.0 92.0 L486.0 92.0" marker-end="url(#request-flow-a)"/><path class="g-p" d="M555.0 122.0 L555.0 200.0" marker-end="url(#request-flow-a)"/><path class="g-p" d="M488.0 230.0 L450.0 230.0" marker-end="url(#request-flow-a)"/><path class="g-pbad" d="M622.0 230.0 L658.0 230.0" marker-end="url(#request-flow-ab)"/><path class="g-p" d="M555.0 260.0 L555.0 308.0" marker-end="url(#request-flow-a)"/><text class="g-text g-s g-tbad" x="720.0" y="300.0" text-anchor="middle">prompts and data leave</text><text class="g-text g-s g-tbad" x="720.0" y="314.0" text-anchor="middle">your boundary here</text></svg>
