<?xml version="1.0" encoding="UTF-8"?>
<svg xmlns="http://www.w3.org/2000/svg" class="g-svg" viewBox="0 0 800 170" width="800" height="170" role="img" aria-label="Volume 3 at a glance: 8 weeks and a gate"><title>Volume 3 at a glance: 8 weeks and a gate</title><style>
.g-svg{font-family:-apple-system,BlinkMacSystemFont,"Segoe UI",Helvetica,Arial,sans-serif}
.g-text{fill:#1f2933;font-size:13px}
.g-b{font-weight:700}
.g-s{font-size:11px}
.g-xs{font-size:10px}
.g-m{fill:#5b6b7b}
.g-tbad{fill:#b02a2a}
.g-tgood{fill:#1b7a44}
.g-twarn{fill:#8a6400}
.g-tprim{fill:#2b3990}
.g-ton{fill:#ffffff}
.g-r{stroke-width:1.3}
.g-r-box{fill:#f3f5f9;stroke:#9aa7b8}
.g-r-primary{fill:#e4e9ff;stroke:#4051b5}
.g-r-good{fill:#e3f6ea;stroke:#2e9e5b}
.g-r-warn{fill:#fff3d6;stroke:#d9a000}
.g-r-bad{fill:#fde7e7;stroke:#d64545}
.g-r-zone{fill:none;stroke:#5b6b7b;stroke-dasharray:6 4}
.g-r-zonebad{fill:none;stroke:#d64545;stroke-dasharray:6 4}
.g-r-lv1{fill:#eef0fb;stroke:none}
.g-r-lv2{fill:#cdd3f4;stroke:none}
.g-r-lv3{fill:#9aa6e8;stroke:none}
.g-r-lv4{fill:#5c6dd0;stroke:none}
.g-r-lv5{fill:#2f3fa6;stroke:none}
.g-p{stroke:#5b6b7b;stroke-width:1.6;fill:none}
.g-pbad{stroke:#d64545;stroke-width:1.6;fill:none}
.g-pgood{stroke:#2e9e5b;stroke-width:1.6;fill:none}
.g-pwarn{stroke:#d9a000;stroke-width:1.6;fill:none}
.g-dash{stroke-dasharray:5 4}
.g-ah{fill:#5b6b7b}
.g-ah-bad{fill:#d64545}
.g-ah-good{fill:#2e9e5b}
.g-today{stroke:#d64545;stroke-width:1.4;stroke-dasharray:3 3}
</style><defs><marker id="vol3-timeline-a" viewBox="0 0 10 10" refX="9" refY="5" markerWidth="7" markerHeight="7" orient="auto"><path class="g-ah" d="M0,0 L10,5 L0,10 z"/></marker><marker id="vol3-timeline-ab" viewBox="0 0 10 10" refX="9" refY="5" markerWidth="7" markerHeight="7" orient="auto"><path class="g-ah-bad" d="M0,0 L10,5 L0,10 z"/></marker><marker id="vol3-timeline-ag" viewBox="0 0 10 10" refX="9" refY="5" markerWidth="7" markerHeight="7" orient="auto"><path class="g-ah-good" d="M0,0 L10,5 L0,10 z"/></marker></defs><path class="g-p" d="M44.0 60.0 L756.0 60.0"/><circle class="g-r g-r-warn" cx="44.0" cy="60.0" r="15"/><text class="g-text g-b" x="44.0" y="64.5" text-anchor="middle">1</text><circle class="g-r g-r-warn" cx="133.0" cy="60.0" r="15"/><text class="g-text g-b" x="133.0" y="64.5" text-anchor="middle">2</text><circle class="g-r g-r-warn" cx="222.0" cy="60.0" r="15"/><text class="g-text g-b" x="222.0" y="64.5" text-anchor="middle">3</text><circle class="g-r g-r-warn" cx="311.0" cy="60.0" r="15"/><text class="g-text g-b" x="311.0" y="64.5" text-anchor="middle">4</text><circle class="g-r g-r-warn" cx="400.0" cy="60.0" r="15"/><text class="g-text g-b" x="400.0" y="64.5" text-anchor="middle">5</text><circle class="g-r g-r-warn" cx="489.0" cy="60.0" r="15"/><text class="g-text g-b" x="489.0" y="64.5" text-anchor="middle">6</text><circle class="g-r g-r-warn" cx="578.0" cy="60.0" r="15"/><text class="g-text g-b" x="578.0" y="64.5" text-anchor="middle">7</text><circle class="g-r g-r-warn" cx="667.0" cy="60.0" r="15"/><text class="g-text g-b" x="667.0" y="64.5" text-anchor="middle">8</text><rect class="g-r g-r-warn" x="732.0" y="45.0" width="48.0" height="30.0" rx="8"/><text class="g-text g-b g-twarn" x="756.0" y="64.5" text-anchor="middle">Gate</text><path class="g-p" d="M28.0 88.0 L28.0 94.0 L149.0 94.0 L149.0 88.0"/><text class="g-text g-s" x="88.5" y="110.0" text-anchor="middle">Governance operating</text><text class="g-text g-s" x="88.5" y="124.0" text-anchor="middle">model and global</text><text class="g-text g-s" x="88.5" y="138.0" text-anchor="middle">regulation</text><path class="g-p" d="M206.0 88.0 L206.0 94.0 L327.0 94.0 L327.0 88.0"/><text class="g-text g-s" x="266.5" y="110.0" text-anchor="middle">Frameworks, standards</text><text class="g-text g-s" x="266.5" y="124.0" text-anchor="middle">and regional</text><text class="g-text g-s" x="266.5" y="138.0" text-anchor="middle">regulation</text><path class="g-p" d="M384.0 88.0 L384.0 94.0 L505.0 94.0 L505.0 88.0"/><text class="g-text g-s" x="444.5" y="110.0" text-anchor="middle">Policy, risk register</text><text class="g-text g-s" x="444.5" y="124.0" text-anchor="middle">and third-party risk</text><path class="g-p" d="M562.0 88.0 L562.0 94.0 L683.0 94.0 L683.0 88.0"/><text class="g-text g-s" x="622.5" y="110.0" text-anchor="middle">Assurance, monitoring</text><text class="g-text g-s" x="622.5" y="124.0" text-anchor="middle">and the capstone</text></svg>
